<?xml version="1.0" encoding="UTF-8" standalone="no"?>
<!DOCTYPE svg PUBLIC "-//W3C//DTD SVG 1.1//EN"
 "http://www.w3.org/Graphics/SVG/1.1/DTD/svg11.dtd">
<!-- Generated by graphviz version 2.40.1 (20161225.0304)
 -->
<!-- Title: dependencies Pages: 1 -->
<svg width="1452pt" height="284pt"
 viewBox="0.00 0.00 1452.00 284.00" xmlns="http://www.w3.org/2000/svg" xmlns:xlink="http://www.w3.org/1999/xlink">
<g id="graph0" class="graph" transform="scale(1 1) rotate(0) translate(4 280)">
<title>dependencies</title>
<polygon fill="#ffffff" stroke="transparent" points="-4,4 -4,-280 1448,-280 1448,4 -4,4"/>
<text text-anchor="start" x="701.0091" y="-42.4" font-family="sans-serif" font-weight="bold" font-size="14.00" fill="#000000">Legend</text>
<polygon fill="#ffffb3" stroke="transparent" points="488,-10 488,-30 508,-30 508,-10 488,-10"/>
<text text-anchor="start" x="511.629" y="-15.4" font-family="sans-serif" font-size="14.00" fill="#000000"> &#160;Declarations</text>
<polygon fill="#8dd3c7" stroke="transparent" points="601,-10 601,-30 621,-30 621,-10 601,-10"/>
<text text-anchor="start" x="624.7251" y="-15.4" font-family="sans-serif" font-size="14.00" fill="#000000"> &#160;Module</text>
<polygon fill="#80b1d3" stroke="transparent" points="687,-10 687,-30 707,-30 707,-10 687,-10"/>
<text text-anchor="start" x="710.7812" y="-15.4" font-family="sans-serif" font-size="14.00" fill="#000000"> &#160;Bootstrap</text>
<polygon fill="#fdb462" stroke="transparent" points="784,-10 784,-30 804,-30 804,-10 784,-10"/>
<text text-anchor="start" x="807.6732" y="-15.4" font-family="sans-serif" font-size="14.00" fill="#000000"> &#160;Providers</text>
<polygon fill="#fb8072" stroke="transparent" points="880,-10 880,-30 900,-30 900,-10 880,-10"/>
<text text-anchor="start" x="903.7258" y="-15.4" font-family="sans-serif" font-size="14.00" fill="#000000"> &#160;Exports</text>
<g id="clust1" class="cluster">
<title>cluster_AppModule</title>
<polygon fill="none" stroke="#000000" stroke-dasharray="1,5" points="8,-70 8,-268 1436,-268 1436,-70 8,-70"/>
</g>
<g id="clust2" class="cluster">
<title>cluster_AppModule_declarations</title>
<polygon fill="none" stroke="#000000" points="962,-78 962,-130 1428,-130 1428,-78 962,-78"/>
</g>
<g id="clust6" class="cluster">
<title>cluster_AppModule_imports</title>
<polygon fill="none" stroke="#000000" points="16,-78 16,-130 954,-130 954,-78 16,-78"/>
</g>
<g id="clust8" class="cluster">
<title>cluster_AppModule_bootstrap</title>
<polygon fill="none" stroke="#000000" points="609,-208 609,-260 733,-260 733,-208 609,-208"/>
</g>
<!-- AdminLayoutComponent -->
<g id="node1" class="node">
<title>AdminLayoutComponent</title>
<polygon fill="#ffffb3" stroke="#000000" points="1419.878,-122 1260.122,-122 1260.122,-86 1419.878,-86 1419.878,-122"/>
<text text-anchor="middle" x="1340" y="-99.8" font-family="Times,serif" font-size="14.00" fill="#000000">AdminLayoutComponent</text>
</g>
<!-- AppModule -->
<g id="node4" class="node">
<title>AppModule</title>
<polygon fill="#8dd3c7" stroke="#000000" points="712.6571,-187 709.6571,-191 688.6571,-191 685.6571,-187 629.3429,-187 629.3429,-151 712.6571,-151 712.6571,-187"/>
<text text-anchor="middle" x="671" y="-164.8" font-family="Times,serif" font-size="14.00" fill="#000000">AppModule</text>
</g>
<!-- AdminLayoutComponent&#45;&gt;AppModule -->
<g id="edge1" class="edge">
<title>AdminLayoutComponent&#45;&gt;AppModule</title>
<path fill="none" stroke="#000000" d="M1340,-122.0109C1340,-144.4852 1340,-180 1340,-180 1340,-180 722.8489,-180 722.8489,-180"/>
<polygon fill="#000000" stroke="#000000" points="722.849,-176.5001 712.8489,-180 722.8489,-183.5001 722.849,-176.5001"/>
</g>
<!-- AppComponent -->
<g id="node2" class="node">
<title>AppComponent</title>
<polygon fill="#ffffb3" stroke="#000000" points="1241.9399,-122 1136.0601,-122 1136.0601,-86 1241.9399,-86 1241.9399,-122"/>
<text text-anchor="middle" x="1189" y="-99.8" font-family="Times,serif" font-size="14.00" fill="#000000">AppComponent</text>
</g>
<!-- AppComponent&#45;&gt;AppModule -->
<g id="edge2" class="edge">
<title>AppComponent&#45;&gt;AppModule</title>
<path fill="none" stroke="#000000" d="M1189,-122.1289C1189,-142.5724 1189,-173 1189,-173 1189,-173 722.9513,-173 722.9513,-173"/>
<polygon fill="#000000" stroke="#000000" points="722.9514,-169.5001 712.9513,-173 722.9513,-176.5001 722.9514,-169.5001"/>
</g>
<!-- AuthLayoutComponent -->
<g id="node3" class="node">
<title>AuthLayoutComponent</title>
<polygon fill="#ffffb3" stroke="#000000" points="1118.4874,-122 969.5126,-122 969.5126,-86 1118.4874,-86 1118.4874,-122"/>
<text text-anchor="middle" x="1044" y="-99.8" font-family="Times,serif" font-size="14.00" fill="#000000">AuthLayoutComponent</text>
</g>
<!-- AuthLayoutComponent&#45;&gt;AppModule -->
<g id="edge3" class="edge">
<title>AuthLayoutComponent&#45;&gt;AppModule</title>
<path fill="none" stroke="#000000" d="M1044,-122.2667C1044,-140.5552 1044,-166 1044,-166 1044,-166 722.7021,-166 722.7021,-166"/>
<polygon fill="#000000" stroke="#000000" points="722.7021,-162.5001 712.7021,-166 722.7021,-169.5001 722.7021,-162.5001"/>
</g>
<!-- AppComponent  -->
<g id="node12" class="node">
<title>AppComponent </title>
<polygon fill="#80b1d3" stroke="#000000" points="725.439,-252 616.561,-252 616.561,-216 725.439,-216 725.439,-252"/>
<text text-anchor="middle" x="671" y="-229.8" font-family="Times,serif" font-size="14.00" fill="#000000">AppComponent </text>
</g>
<!-- AppModule&#45;&gt;AppComponent  -->
<g id="edge11" class="edge">
<title>AppModule&#45;&gt;AppComponent </title>
<path fill="none" stroke="#000000" stroke-dasharray="1,5" d="M671,-187.1061C671,-187.1061 671,-205.991 671,-205.991"/>
<polygon fill="#000000" stroke="#000000" points="667.5001,-205.9909 671,-215.991 674.5001,-205.991 667.5001,-205.9909"/>
</g>
<!-- AppOverlayModule -->
<g id="node5" class="node">
<title>AppOverlayModule</title>
<polygon fill="#8dd3c7" stroke="#000000" points="946.2437,-122 943.2437,-126 922.2437,-126 919.2437,-122 817.7563,-122 817.7563,-86 946.2437,-86 946.2437,-122"/>
<text text-anchor="middle" x="882" y="-99.8" font-family="Times,serif" font-size="14.00" fill="#000000">AppOverlayModule</text>
</g>
<!-- AppOverlayModule&#45;&gt;AppModule -->
<g id="edge4" class="edge">
<title>AppOverlayModule&#45;&gt;AppModule</title>
<path fill="none" stroke="#000000" d="M882,-122.0091C882,-138.0494 882,-159 882,-159 882,-159 722.6868,-159 722.6868,-159"/>
<polygon fill="#000000" stroke="#000000" points="722.6868,-155.5001 712.6868,-159 722.6868,-162.5001 722.6868,-155.5001"/>
</g>
<!-- FixedpluginModule -->
<g id="node6" class="node">
<title>FixedpluginModule</title>
<polygon fill="#8dd3c7" stroke="#000000" points="799.719,-122 796.719,-126 775.719,-126 772.719,-122 672.281,-122 672.281,-86 799.719,-86 799.719,-122"/>
<text text-anchor="middle" x="736" y="-99.8" font-family="Times,serif" font-size="14.00" fill="#000000">FixedpluginModule</text>
</g>
<!-- FixedpluginModule&#45;&gt;AppModule -->
<g id="edge5" class="edge">
<title>FixedpluginModule&#45;&gt;AppModule</title>
<path fill="none" stroke="#000000" d="M692.6094,-122.1061C692.6094,-122.1061 692.6094,-140.991 692.6094,-140.991"/>
<polygon fill="#000000" stroke="#000000" points="689.1095,-140.9909 692.6094,-150.991 696.1095,-140.991 689.1095,-140.9909"/>
</g>
<!-- FooterModule -->
<g id="node7" class="node">
<title>FooterModule</title>
<polygon fill="#8dd3c7" stroke="#000000" points="654.0983,-122 651.0983,-126 630.0983,-126 627.0983,-122 557.9017,-122 557.9017,-86 654.0983,-86 654.0983,-122"/>
<text text-anchor="middle" x="606" y="-99.8" font-family="Times,serif" font-size="14.00" fill="#000000">FooterModule</text>
</g>
<!-- FooterModule&#45;&gt;AppModule -->
<g id="edge6" class="edge">
<title>FooterModule&#45;&gt;AppModule</title>
<path fill="none" stroke="#000000" d="M641.6104,-122.1061C641.6104,-122.1061 641.6104,-140.991 641.6104,-140.991"/>
<polygon fill="#000000" stroke="#000000" points="638.1105,-140.9909 641.6104,-150.991 645.1105,-140.991 638.1105,-140.9909"/>
</g>
<!-- MaterialModule -->
<g id="node8" class="node">
<title>MaterialModule</title>
<polygon fill="#8dd3c7" stroke="#000000" points="539.4706,-122 536.4706,-126 515.4706,-126 512.4706,-122 432.5294,-122 432.5294,-86 539.4706,-86 539.4706,-122"/>
<text text-anchor="middle" x="486" y="-99.8" font-family="Times,serif" font-size="14.00" fill="#000000">MaterialModule</text>
</g>
<!-- MaterialModule&#45;&gt;AppModule -->
<g id="edge7" class="edge">
<title>MaterialModule&#45;&gt;AppModule</title>
<path fill="none" stroke="#000000" d="M486,-122.0091C486,-138.0494 486,-159 486,-159 486,-159 619.0206,-159 619.0206,-159"/>
<polygon fill="#000000" stroke="#000000" points="619.0207,-162.5001 629.0206,-159 619.0206,-155.5001 619.0207,-162.5001"/>
</g>
<!-- NavbarModule -->
<g id="node9" class="node">
<title>NavbarModule</title>
<polygon fill="#8dd3c7" stroke="#000000" points="414.2465,-122 411.2465,-126 390.2465,-126 387.2465,-122 313.7535,-122 313.7535,-86 414.2465,-86 414.2465,-122"/>
<text text-anchor="middle" x="364" y="-99.8" font-family="Times,serif" font-size="14.00" fill="#000000">NavbarModule</text>
</g>
<!-- NavbarModule&#45;&gt;AppModule -->
<g id="edge8" class="edge">
<title>NavbarModule&#45;&gt;AppModule</title>
<path fill="none" stroke="#000000" d="M364,-122.2667C364,-140.5552 364,-166 364,-166 364,-166 619.2771,-166 619.2771,-166"/>
<polygon fill="#000000" stroke="#000000" points="619.2771,-169.5001 629.2771,-166 619.2771,-162.5001 619.2771,-169.5001"/>
</g>
<!-- ProgressSpinnerModule -->
<g id="node10" class="node">
<title>ProgressSpinnerModule</title>
<polygon fill="#8dd3c7" stroke="#000000" points="295.8061,-122 292.8061,-126 271.8061,-126 268.8061,-122 144.1939,-122 144.1939,-86 295.8061,-86 295.8061,-122"/>
<text text-anchor="middle" x="220" y="-99.8" font-family="Times,serif" font-size="14.00" fill="#000000">ProgressSpinnerModule</text>
</g>
<!-- ProgressSpinnerModule&#45;&gt;AppModule -->
<g id="edge9" class="edge">
<title>ProgressSpinnerModule&#45;&gt;AppModule</title>
<path fill="none" stroke="#000000" d="M220,-122.1289C220,-142.5724 220,-173 220,-173 220,-173 618.976,-173 618.976,-173"/>
<polygon fill="#000000" stroke="#000000" points="618.976,-176.5001 628.976,-173 618.976,-169.5001 618.976,-176.5001"/>
</g>
<!-- SidebarModule -->
<g id="node11" class="node">
<title>SidebarModule</title>
<polygon fill="#8dd3c7" stroke="#000000" points="126.3133,-122 123.3133,-126 102.3133,-126 99.3133,-122 23.6867,-122 23.6867,-86 126.3133,-86 126.3133,-122"/>
<text text-anchor="middle" x="75" y="-99.8" font-family="Times,serif" font-size="14.00" fill="#000000">SidebarModule</text>
</g>
<!-- SidebarModule&#45;&gt;AppModule -->
<g id="edge10" class="edge">
<title>SidebarModule&#45;&gt;AppModule</title>
<path fill="none" stroke="#000000" d="M75,-122.0109C75,-144.4852 75,-180 75,-180 75,-180 619.0904,-180 619.0904,-180"/>
<polygon fill="#000000" stroke="#000000" points="619.0905,-183.5001 629.0904,-180 619.0904,-176.5001 619.0905,-183.5001"/>
</g>
</g>
</svg>
