<?xml version="1.0" encoding="UTF-8" standalone="no"?>
<!DOCTYPE svg PUBLIC "-//W3C//DTD SVG 1.1//EN"
 "http://www.w3.org/Graphics/SVG/1.1/DTD/svg11.dtd">
<!-- Generated by graphviz version 2.40.1 (20161225.0304)
 -->
<!-- Title: dependencies Pages: 1 -->
<svg width="504pt" height="211pt"
 viewBox="0.00 0.00 504.00 211.00" xmlns="http://www.w3.org/2000/svg" xmlns:xlink="http://www.w3.org/1999/xlink">
<g id="graph0" class="graph" transform="scale(1 1) rotate(0) translate(4 207)">
<title>dependencies</title>
<polygon fill="#ffffff" stroke="transparent" points="-4,4 -4,-207 500,-207 500,4 -4,4"/>
<text text-anchor="start" x="227.0091" y="-42.4" font-family="sans-serif" font-weight="bold" font-size="14.00" fill="#000000">Legend</text>
<polygon fill="#ffffb3" stroke="transparent" points="14,-10 14,-30 34,-30 34,-10 14,-10"/>
<text text-anchor="start" x="37.629" y="-15.4" font-family="sans-serif" font-size="14.00" fill="#000000"> &#160;Declarations</text>
<polygon fill="#8dd3c7" stroke="transparent" points="127,-10 127,-30 147,-30 147,-10 127,-10"/>
<text text-anchor="start" x="150.7251" y="-15.4" font-family="sans-serif" font-size="14.00" fill="#000000"> &#160;Module</text>
<polygon fill="#80b1d3" stroke="transparent" points="213,-10 213,-30 233,-30 233,-10 213,-10"/>
<text text-anchor="start" x="236.7812" y="-15.4" font-family="sans-serif" font-size="14.00" fill="#000000"> &#160;Bootstrap</text>
<polygon fill="#fdb462" stroke="transparent" points="310,-10 310,-30 330,-30 330,-10 310,-10"/>
<text text-anchor="start" x="333.6732" y="-15.4" font-family="sans-serif" font-size="14.00" fill="#000000"> &#160;Providers</text>
<polygon fill="#fb8072" stroke="transparent" points="406,-10 406,-30 426,-30 426,-10 406,-10"/>
<text text-anchor="start" x="429.7258" y="-15.4" font-family="sans-serif" font-size="14.00" fill="#000000"> &#160;Exports</text>
<g id="clust1" class="cluster">
<title>cluster_SalesModule</title>
<polygon fill="none" stroke="#000000" stroke-dasharray="1,5" points="112,-70 112,-195 384,-195 384,-70 112,-70"/>
</g>
<g id="clust2" class="cluster">
<title>cluster_SalesModule_declarations</title>
<polygon fill="none" stroke="#000000" points="250,-78 250,-130 376,-130 376,-78 250,-78"/>
</g>
<g id="clust4" class="cluster">
<title>cluster_SalesModule_imports</title>
<polygon fill="none" stroke="#000000" points="120,-78 120,-130 242,-130 242,-78 120,-78"/>
</g>
<!-- SalesComponent -->
<g id="node1" class="node">
<title>SalesComponent</title>
<polygon fill="#ffffb3" stroke="#000000" points="368.3795,-122 257.6205,-122 257.6205,-86 368.3795,-86 368.3795,-122"/>
<text text-anchor="middle" x="313" y="-99.8" font-family="Times,serif" font-size="14.00" fill="#000000">SalesComponent</text>
</g>
<!-- SalesModule -->
<g id="node2" class="node">
<title>SalesModule</title>
<polygon fill="#8dd3c7" stroke="#000000" points="291.5969,-187 288.5969,-191 267.5969,-191 264.5969,-187 202.4031,-187 202.4031,-151 291.5969,-151 291.5969,-187"/>
<text text-anchor="middle" x="247" y="-164.8" font-family="Times,serif" font-size="14.00" fill="#000000">SalesModule</text>
</g>
<!-- SalesComponent&#45;&gt;SalesModule -->
<g id="edge1" class="edge">
<title>SalesComponent&#45;&gt;SalesModule</title>
<path fill="none" stroke="#000000" d="M274.5544,-122.1061C274.5544,-122.1061 274.5544,-140.991 274.5544,-140.991"/>
<polygon fill="#000000" stroke="#000000" points="271.0544,-140.9909 274.5544,-150.991 278.0544,-140.991 271.0544,-140.9909"/>
</g>
<!-- MaterialModule -->
<g id="node3" class="node">
<title>MaterialModule</title>
<polygon fill="#8dd3c7" stroke="#000000" points="234.4706,-122 231.4706,-126 210.4706,-126 207.4706,-122 127.5294,-122 127.5294,-86 234.4706,-86 234.4706,-122"/>
<text text-anchor="middle" x="181" y="-99.8" font-family="Times,serif" font-size="14.00" fill="#000000">MaterialModule</text>
</g>
<!-- MaterialModule&#45;&gt;SalesModule -->
<g id="edge2" class="edge">
<title>MaterialModule&#45;&gt;SalesModule</title>
<path fill="none" stroke="#000000" d="M218.4685,-122.1061C218.4685,-122.1061 218.4685,-140.991 218.4685,-140.991"/>
<polygon fill="#000000" stroke="#000000" points="214.9685,-140.9909 218.4685,-150.991 221.9685,-140.991 214.9685,-140.9909"/>
</g>
</g>
</svg>
