<?xml version="1.0" encoding="UTF-8" standalone="no"?>
<!DOCTYPE svg PUBLIC "-//W3C//DTD SVG 1.1//EN"
 "http://www.w3.org/Graphics/SVG/1.1/DTD/svg11.dtd">
<!-- Generated by graphviz version 2.40.1 (20161225.0304)
 -->
<!-- Title: dependencies Pages: 1 -->
<svg width="714pt" height="211pt"
 viewBox="0.00 0.00 714.00 211.00" xmlns="http://www.w3.org/2000/svg" xmlns:xlink="http://www.w3.org/1999/xlink">
<g id="graph0" class="graph" transform="scale(1 1) rotate(0) translate(4 207)">
<title>dependencies</title>
<polygon fill="#ffffff" stroke="transparent" points="-4,4 -4,-207 710,-207 710,4 -4,4"/>
<text text-anchor="start" x="332.0091" y="-42.4" font-family="sans-serif" font-weight="bold" font-size="14.00" fill="#000000">Legend</text>
<polygon fill="#ffffb3" stroke="transparent" points="119,-10 119,-30 139,-30 139,-10 119,-10"/>
<text text-anchor="start" x="142.629" y="-15.4" font-family="sans-serif" font-size="14.00" fill="#000000"> &#160;Declarations</text>
<polygon fill="#8dd3c7" stroke="transparent" points="232,-10 232,-30 252,-30 252,-10 232,-10"/>
<text text-anchor="start" x="255.7251" y="-15.4" font-family="sans-serif" font-size="14.00" fill="#000000"> &#160;Module</text>
<polygon fill="#80b1d3" stroke="transparent" points="318,-10 318,-30 338,-30 338,-10 318,-10"/>
<text text-anchor="start" x="341.7812" y="-15.4" font-family="sans-serif" font-size="14.00" fill="#000000"> &#160;Bootstrap</text>
<polygon fill="#fdb462" stroke="transparent" points="415,-10 415,-30 435,-30 435,-10 415,-10"/>
<text text-anchor="start" x="438.6732" y="-15.4" font-family="sans-serif" font-size="14.00" fill="#000000"> &#160;Providers</text>
<polygon fill="#fb8072" stroke="transparent" points="511,-10 511,-30 531,-30 531,-10 511,-10"/>
<text text-anchor="start" x="534.7258" y="-15.4" font-family="sans-serif" font-size="14.00" fill="#000000"> &#160;Exports</text>
<g id="clust1" class="cluster">
<title>cluster_PagesModule</title>
<polygon fill="none" stroke="#000000" stroke-dasharray="1,5" points="8,-70 8,-195 698,-195 698,-70 8,-70"/>
</g>
<g id="clust2" class="cluster">
<title>cluster_PagesModule_declarations</title>
<polygon fill="none" stroke="#000000" points="146,-78 146,-130 690,-130 690,-78 146,-78"/>
</g>
<g id="clust7" class="cluster">
<title>cluster_PagesModule_imports</title>
<polygon fill="none" stroke="#000000" points="16,-78 16,-130 138,-130 138,-78 16,-78"/>
</g>
<!-- LockComponent -->
<g id="node1" class="node">
<title>LockComponent</title>
<polygon fill="#ffffb3" stroke="#000000" points="682.0996,-122 571.9004,-122 571.9004,-86 682.0996,-86 682.0996,-122"/>
<text text-anchor="middle" x="627" y="-99.8" font-family="Times,serif" font-size="14.00" fill="#000000">LockComponent</text>
</g>
<!-- PagesModule -->
<g id="node5" class="node">
<title>PagesModule</title>
<polygon fill="#8dd3c7" stroke="#000000" points="407.2064,-187 404.2064,-191 383.2064,-191 380.2064,-187 314.7936,-187 314.7936,-151 407.2064,-151 407.2064,-187"/>
<text text-anchor="middle" x="361" y="-164.8" font-family="Times,serif" font-size="14.00" fill="#000000">PagesModule</text>
</g>
<!-- LockComponent&#45;&gt;PagesModule -->
<g id="edge1" class="edge">
<title>LockComponent&#45;&gt;PagesModule</title>
<path fill="none" stroke="#000000" d="M627,-122.2843C627,-143.3211 627,-175 627,-175 627,-175 417.3337,-175 417.3337,-175"/>
<polygon fill="#000000" stroke="#000000" points="417.3337,-171.5001 407.3337,-175 417.3336,-178.5001 417.3337,-171.5001"/>
</g>
<!-- LoginComponent -->
<g id="node2" class="node">
<title>LoginComponent</title>
<polygon fill="#ffffb3" stroke="#000000" points="554.2758,-122 439.7242,-122 439.7242,-86 554.2758,-86 554.2758,-122"/>
<text text-anchor="middle" x="497" y="-99.8" font-family="Times,serif" font-size="14.00" fill="#000000">LoginComponent</text>
</g>
<!-- LoginComponent&#45;&gt;PagesModule -->
<g id="edge2" class="edge">
<title>LoginComponent&#45;&gt;PagesModule</title>
<path fill="none" stroke="#000000" d="M497,-122.0225C497,-139.3734 497,-163 497,-163 497,-163 417.4231,-163 417.4231,-163"/>
<polygon fill="#000000" stroke="#000000" points="417.4231,-159.5001 407.4231,-163 417.4231,-166.5001 417.4231,-159.5001"/>
</g>
<!-- PricingComponent -->
<g id="node3" class="node">
<title>PricingComponent</title>
<polygon fill="#ffffb3" stroke="#000000" points="421.7716,-122 300.2284,-122 300.2284,-86 421.7716,-86 421.7716,-122"/>
<text text-anchor="middle" x="361" y="-99.8" font-family="Times,serif" font-size="14.00" fill="#000000">PricingComponent</text>
</g>
<!-- PricingComponent&#45;&gt;PagesModule -->
<g id="edge3" class="edge">
<title>PricingComponent&#45;&gt;PagesModule</title>
<path fill="none" stroke="#000000" d="M361,-122.1061C361,-122.1061 361,-140.991 361,-140.991"/>
<polygon fill="#000000" stroke="#000000" points="357.5001,-140.9909 361,-150.991 364.5001,-140.991 357.5001,-140.9909"/>
</g>
<!-- RegisterComponent -->
<g id="node4" class="node">
<title>RegisterComponent</title>
<polygon fill="#ffffb3" stroke="#000000" points="281.9846,-122 154.0154,-122 154.0154,-86 281.9846,-86 281.9846,-122"/>
<text text-anchor="middle" x="218" y="-99.8" font-family="Times,serif" font-size="14.00" fill="#000000">RegisterComponent</text>
</g>
<!-- RegisterComponent&#45;&gt;PagesModule -->
<g id="edge4" class="edge">
<title>RegisterComponent&#45;&gt;PagesModule</title>
<path fill="none" stroke="#000000" d="M218,-122.0225C218,-139.3734 218,-163 218,-163 218,-163 304.572,-163 304.572,-163"/>
<polygon fill="#000000" stroke="#000000" points="304.572,-166.5001 314.572,-163 304.572,-159.5001 304.572,-166.5001"/>
</g>
<!-- MaterialModule -->
<g id="node6" class="node">
<title>MaterialModule</title>
<polygon fill="#8dd3c7" stroke="#000000" points="130.4706,-122 127.4706,-126 106.4706,-126 103.4706,-122 23.5294,-122 23.5294,-86 130.4706,-86 130.4706,-122"/>
<text text-anchor="middle" x="77" y="-99.8" font-family="Times,serif" font-size="14.00" fill="#000000">MaterialModule</text>
</g>
<!-- MaterialModule&#45;&gt;PagesModule -->
<g id="edge5" class="edge">
<title>MaterialModule&#45;&gt;PagesModule</title>
<path fill="none" stroke="#000000" d="M77,-122.2843C77,-143.3211 77,-175 77,-175 77,-175 304.7384,-175 304.7384,-175"/>
<polygon fill="#000000" stroke="#000000" points="304.7385,-178.5001 314.7384,-175 304.7384,-171.5001 304.7385,-178.5001"/>
</g>
</g>
</svg>
