<?xml version="1.0" encoding="UTF-8" standalone="no"?>
<!DOCTYPE svg PUBLIC "-//W3C//DTD SVG 1.1//EN"
 "http://www.w3.org/Graphics/SVG/1.1/DTD/svg11.dtd">
<!-- Generated by graphviz version 2.40.1 (20161225.0304)
 -->
<!-- Title: dependencies Pages: 1 -->
<svg width="944pt" height="211pt"
 viewBox="0.00 0.00 944.00 211.00" xmlns="http://www.w3.org/2000/svg" xmlns:xlink="http://www.w3.org/1999/xlink">
<g id="graph0" class="graph" transform="scale(1 1) rotate(0) translate(4 207)">
<title>dependencies</title>
<polygon fill="#ffffff" stroke="transparent" points="-4,4 -4,-207 940,-207 940,4 -4,4"/>
<text text-anchor="start" x="447.0091" y="-42.4" font-family="sans-serif" font-weight="bold" font-size="14.00" fill="#000000">Legend</text>
<polygon fill="#ffffb3" stroke="transparent" points="234,-10 234,-30 254,-30 254,-10 234,-10"/>
<text text-anchor="start" x="257.629" y="-15.4" font-family="sans-serif" font-size="14.00" fill="#000000"> &#160;Declarations</text>
<polygon fill="#8dd3c7" stroke="transparent" points="347,-10 347,-30 367,-30 367,-10 347,-10"/>
<text text-anchor="start" x="370.7251" y="-15.4" font-family="sans-serif" font-size="14.00" fill="#000000"> &#160;Module</text>
<polygon fill="#80b1d3" stroke="transparent" points="433,-10 433,-30 453,-30 453,-10 433,-10"/>
<text text-anchor="start" x="456.7812" y="-15.4" font-family="sans-serif" font-size="14.00" fill="#000000"> &#160;Bootstrap</text>
<polygon fill="#fdb462" stroke="transparent" points="530,-10 530,-30 550,-30 550,-10 530,-10"/>
<text text-anchor="start" x="553.6732" y="-15.4" font-family="sans-serif" font-size="14.00" fill="#000000"> &#160;Providers</text>
<polygon fill="#fb8072" stroke="transparent" points="626,-10 626,-30 646,-30 646,-10 626,-10"/>
<text text-anchor="start" x="649.7258" y="-15.4" font-family="sans-serif" font-size="14.00" fill="#000000"> &#160;Exports</text>
<g id="clust1" class="cluster">
<title>cluster_StoreModule</title>
<polygon fill="none" stroke="#000000" stroke-dasharray="1,5" points="8,-70 8,-195 928,-195 928,-70 8,-70"/>
</g>
<g id="clust2" class="cluster">
<title>cluster_StoreModule_declarations</title>
<polygon fill="none" stroke="#000000" points="146,-78 146,-130 920,-130 920,-78 146,-78"/>
</g>
<g id="clust8" class="cluster">
<title>cluster_StoreModule_imports</title>
<polygon fill="none" stroke="#000000" points="16,-78 16,-130 138,-130 138,-78 16,-78"/>
</g>
<!-- BidRateComponent -->
<g id="node1" class="node">
<title>BidRateComponent</title>
<polygon fill="#ffffb3" stroke="#000000" points="911.7162,-122 784.2838,-122 784.2838,-86 911.7162,-86 911.7162,-122"/>
<text text-anchor="middle" x="848" y="-99.8" font-family="Times,serif" font-size="14.00" fill="#000000">BidRateComponent</text>
</g>
<!-- StoreModule -->
<g id="node6" class="node">
<title>StoreModule</title>
<polygon fill="#8dd3c7" stroke="#000000" points="509.5983,-187 506.5983,-191 485.5983,-191 482.5983,-187 420.4017,-187 420.4017,-151 509.5983,-151 509.5983,-187"/>
<text text-anchor="middle" x="465" y="-164.8" font-family="Times,serif" font-size="14.00" fill="#000000">StoreModule</text>
</g>
<!-- BidRateComponent&#45;&gt;StoreModule -->
<g id="edge1" class="edge">
<title>BidRateComponent&#45;&gt;StoreModule</title>
<path fill="none" stroke="#000000" d="M848,-122.2843C848,-143.3211 848,-175 848,-175 848,-175 519.6845,-175 519.6845,-175"/>
<polygon fill="#000000" stroke="#000000" points="519.6846,-171.5001 509.6845,-175 519.6845,-178.5001 519.6846,-171.5001"/>
</g>
<!-- CategoryComponent -->
<g id="node2" class="node">
<title>CategoryComponent</title>
<polygon fill="#ffffb3" stroke="#000000" points="766.1499,-122 633.8501,-122 633.8501,-86 766.1499,-86 766.1499,-122"/>
<text text-anchor="middle" x="700" y="-99.8" font-family="Times,serif" font-size="14.00" fill="#000000">CategoryComponent</text>
</g>
<!-- CategoryComponent&#45;&gt;StoreModule -->
<g id="edge2" class="edge">
<title>CategoryComponent&#45;&gt;StoreModule</title>
<path fill="none" stroke="#000000" d="M700,-122.0225C700,-139.3734 700,-163 700,-163 700,-163 519.7548,-163 519.7548,-163"/>
<polygon fill="#000000" stroke="#000000" points="519.7549,-159.5001 509.7548,-163 519.7548,-166.5001 519.7549,-159.5001"/>
</g>
<!-- GeneralComponent -->
<g id="node3" class="node">
<title>GeneralComponent</title>
<polygon fill="#ffffb3" stroke="#000000" points="615.6345,-122 490.3655,-122 490.3655,-86 615.6345,-86 615.6345,-122"/>
<text text-anchor="middle" x="553" y="-99.8" font-family="Times,serif" font-size="14.00" fill="#000000">GeneralComponent</text>
</g>
<!-- GeneralComponent&#45;&gt;StoreModule -->
<g id="edge3" class="edge">
<title>GeneralComponent&#45;&gt;StoreModule</title>
<path fill="none" stroke="#000000" d="M499.8661,-122.1061C499.8661,-122.1061 499.8661,-140.991 499.8661,-140.991"/>
<polygon fill="#000000" stroke="#000000" points="496.3661,-140.9909 499.8661,-150.991 503.3661,-140.991 496.3661,-140.9909"/>
</g>
<!-- MessageTemplatesComponent -->
<g id="node4" class="node">
<title>MessageTemplatesComponent</title>
<polygon fill="#ffffb3" stroke="#000000" points="472.1232,-122 283.8768,-122 283.8768,-86 472.1232,-86 472.1232,-122"/>
<text text-anchor="middle" x="378" y="-99.8" font-family="Times,serif" font-size="14.00" fill="#000000">MessageTemplatesComponent</text>
</g>
<!-- MessageTemplatesComponent&#45;&gt;StoreModule -->
<g id="edge4" class="edge">
<title>MessageTemplatesComponent&#45;&gt;StoreModule</title>
<path fill="none" stroke="#000000" d="M446.3812,-122.1061C446.3812,-122.1061 446.3812,-140.991 446.3812,-140.991"/>
<polygon fill="#000000" stroke="#000000" points="442.8812,-140.9909 446.3812,-150.991 449.8812,-140.991 442.8812,-140.9909"/>
</g>
<!-- PlansComponent -->
<g id="node5" class="node">
<title>PlansComponent</title>
<polygon fill="#ffffb3" stroke="#000000" points="265.6653,-122 154.3347,-122 154.3347,-86 265.6653,-86 265.6653,-122"/>
<text text-anchor="middle" x="210" y="-99.8" font-family="Times,serif" font-size="14.00" fill="#000000">PlansComponent</text>
</g>
<!-- PlansComponent&#45;&gt;StoreModule -->
<g id="edge5" class="edge">
<title>PlansComponent&#45;&gt;StoreModule</title>
<path fill="none" stroke="#000000" d="M210,-122.0225C210,-139.3734 210,-163 210,-163 210,-163 410.2906,-163 410.2906,-163"/>
<polygon fill="#000000" stroke="#000000" points="410.2906,-166.5001 420.2906,-163 410.2906,-159.5001 410.2906,-166.5001"/>
</g>
<!-- MaterialModule -->
<g id="node7" class="node">
<title>MaterialModule</title>
<polygon fill="#8dd3c7" stroke="#000000" points="130.4706,-122 127.4706,-126 106.4706,-126 103.4706,-122 23.5294,-122 23.5294,-86 130.4706,-86 130.4706,-122"/>
<text text-anchor="middle" x="77" y="-99.8" font-family="Times,serif" font-size="14.00" fill="#000000">MaterialModule</text>
</g>
<!-- MaterialModule&#45;&gt;StoreModule -->
<g id="edge6" class="edge">
<title>MaterialModule&#45;&gt;StoreModule</title>
<path fill="none" stroke="#000000" d="M77,-122.2843C77,-143.3211 77,-175 77,-175 77,-175 410.1124,-175 410.1124,-175"/>
<polygon fill="#000000" stroke="#000000" points="410.1125,-178.5001 420.1124,-175 410.1124,-171.5001 410.1125,-178.5001"/>
</g>
</g>
</svg>
