<?xml version="1.0" encoding="UTF-8" standalone="no"?>
<!DOCTYPE svg PUBLIC "-//W3C//DTD SVG 1.1//EN"
 "http://www.w3.org/Graphics/SVG/1.1/DTD/svg11.dtd">
<!-- Generated by graphviz version 2.40.1 (20161225.0304)
 -->
<!-- Title: dependencies Pages: 1 -->
<svg width="504pt" height="211pt"
 viewBox="0.00 0.00 504.00 211.00" xmlns="http://www.w3.org/2000/svg" xmlns:xlink="http://www.w3.org/1999/xlink">
<g id="graph0" class="graph" transform="scale(1 1) rotate(0) translate(4 207)">
<title>dependencies</title>
<polygon fill="#ffffff" stroke="transparent" points="-4,4 -4,-207 500,-207 500,4 -4,4"/>
<text text-anchor="start" x="227.0091" y="-42.4" font-family="sans-serif" font-weight="bold" font-size="14.00" fill="#000000">Legend</text>
<polygon fill="#ffffb3" stroke="transparent" points="14,-10 14,-30 34,-30 34,-10 14,-10"/>
<text text-anchor="start" x="37.629" y="-15.4" font-family="sans-serif" font-size="14.00" fill="#000000"> &#160;Declarations</text>
<polygon fill="#8dd3c7" stroke="transparent" points="127,-10 127,-30 147,-30 147,-10 127,-10"/>
<text text-anchor="start" x="150.7251" y="-15.4" font-family="sans-serif" font-size="14.00" fill="#000000"> &#160;Module</text>
<polygon fill="#80b1d3" stroke="transparent" points="213,-10 213,-30 233,-30 233,-10 213,-10"/>
<text text-anchor="start" x="236.7812" y="-15.4" font-family="sans-serif" font-size="14.00" fill="#000000"> &#160;Bootstrap</text>
<polygon fill="#fdb462" stroke="transparent" points="310,-10 310,-30 330,-30 330,-10 310,-10"/>
<text text-anchor="start" x="333.6732" y="-15.4" font-family="sans-serif" font-size="14.00" fill="#000000"> &#160;Providers</text>
<polygon fill="#fb8072" stroke="transparent" points="406,-10 406,-30 426,-30 426,-10 406,-10"/>
<text text-anchor="start" x="429.7258" y="-15.4" font-family="sans-serif" font-size="14.00" fill="#000000"> &#160;Exports</text>
<g id="clust1" class="cluster">
<title>cluster_CustomersModule</title>
<polygon fill="none" stroke="#000000" stroke-dasharray="1,5" points="96,-70 96,-195 400,-195 400,-70 96,-70"/>
</g>
<g id="clust2" class="cluster">
<title>cluster_CustomersModule_declarations</title>
<polygon fill="none" stroke="#000000" points="234,-78 234,-130 392,-130 392,-78 234,-78"/>
</g>
<g id="clust4" class="cluster">
<title>cluster_CustomersModule_imports</title>
<polygon fill="none" stroke="#000000" points="104,-78 104,-130 226,-130 226,-78 104,-78"/>
</g>
<!-- CustomersComponent -->
<g id="node1" class="node">
<title>CustomersComponent</title>
<polygon fill="#ffffb3" stroke="#000000" points="383.7148,-122 242.2852,-122 242.2852,-86 383.7148,-86 383.7148,-122"/>
<text text-anchor="middle" x="313" y="-99.8" font-family="Times,serif" font-size="14.00" fill="#000000">CustomersComponent</text>
</g>
<!-- CustomersModule -->
<g id="node2" class="node">
<title>CustomersModule</title>
<polygon fill="#8dd3c7" stroke="#000000" points="298.9328,-187 295.9328,-191 274.9328,-191 271.9328,-187 179.0672,-187 179.0672,-151 298.9328,-151 298.9328,-187"/>
<text text-anchor="middle" x="239" y="-164.8" font-family="Times,serif" font-size="14.00" fill="#000000">CustomersModule</text>
</g>
<!-- CustomersComponent&#45;&gt;CustomersModule -->
<g id="edge1" class="edge">
<title>CustomersComponent&#45;&gt;CustomersModule</title>
<path fill="none" stroke="#000000" d="M270.5544,-122.1061C270.5544,-122.1061 270.5544,-140.991 270.5544,-140.991"/>
<polygon fill="#000000" stroke="#000000" points="267.0544,-140.9909 270.5544,-150.991 274.0544,-140.991 267.0544,-140.9909"/>
</g>
<!-- MaterialModule -->
<g id="node3" class="node">
<title>MaterialModule</title>
<polygon fill="#8dd3c7" stroke="#000000" points="218.4706,-122 215.4706,-126 194.4706,-126 191.4706,-122 111.5294,-122 111.5294,-86 218.4706,-86 218.4706,-122"/>
<text text-anchor="middle" x="165" y="-99.8" font-family="Times,serif" font-size="14.00" fill="#000000">MaterialModule</text>
</g>
<!-- MaterialModule&#45;&gt;CustomersModule -->
<g id="edge2" class="edge">
<title>MaterialModule&#45;&gt;CustomersModule</title>
<path fill="none" stroke="#000000" d="M198.8847,-122.1061C198.8847,-122.1061 198.8847,-140.991 198.8847,-140.991"/>
<polygon fill="#000000" stroke="#000000" points="195.3847,-140.9909 198.8847,-150.991 202.3847,-140.991 195.3847,-140.9909"/>
</g>
</g>
</svg>
